<svg width="60" height="40" viewBox="0 0 60 40" fill="none" xmlns="http://www.w3.org/2000/svg">
<rect width="60" height="40" fill="white"/>
<line x1="15" y1="10.5" x2="45" y2="10.5" stroke="black"/>
<line x1="15" y1="20.5" x2="45" y2="20.5" stroke="black"/>
<line x1="15" y1="30.5" x2="45" y2="30.5" stroke="black"/>
<path d="M18.5 8.5C18.5 8.5 40 32 43 33C46 34 44.5 26 50 28C57.2948 30.6526 57.5 10.5 45 10.5C38.5 10.5 15 10.5 15 10.5" stroke="black"/>
<path d="M18.5 32.5C18.5 32.5 40 8.99999 43 7.99999C46 6.99999 44.5 15 50 13C57.2948 10.3474 57.5 30.5 45 30.5C38.5 30.5 15 30.5 15 30.5" stroke="black"/>
</svg>
