<?xml version="1.0" encoding="UTF-8" standalone="no"?>
<!-- Created with Inkscape (http://www.inkscape.org/) -->
<svg
   xmlns:dc="http://purl.org/dc/elements/1.1/"
   xmlns:cc="http://web.resource.org/cc/"
   xmlns:rdf="http://www.w3.org/1999/02/22-rdf-syntax-ns#"
   xmlns:svg="http://www.w3.org/2000/svg"
   xmlns="http://www.w3.org/2000/svg"
   xmlns:sodipodi="http://sodipodi.sourceforge.net/DTD/sodipodi-0.dtd"
   xmlns:inkscape="http://www.inkscape.org/namespaces/inkscape"
   width="823.9231"
   height="360.32278"
   id="svg127772"
   sodipodi:version="0.32"
   inkscape:version="0.44"
   version="1.0"
   sodipodi:docbase="C:\Dokumente und Einstellungen\Andreas\Eigene Dateien\Eigene Bilder\sonstiges\Logos\Vektor"
   sodipodi:docname="TomTom-Logo.svg">
  <defs
     id="defs127774">
    <clipPath
       clip-rule="nonzero"
       id="clp754">
<path
   id="path7265"
   d="M 723.1,447.07 L 809.8,447.07 L 809.8,424.05 L 723.1,424.05 L 723.1,447.07 z " />

</clipPath>
    <clipPath
       clip-rule="nonzero"
       id="clp755">
<path
   id="path7274"
   d="M 723.1,447.07 L 809.8,447.07 L 809.8,424.05 L 723.1,424.05 L 723.1,447.07 z " />

</clipPath>
    <clipPath
       clip-rule="nonzero"
       id="clp766">
<path
   id="path7617"
   d="M 353.2,269.72 L 381.55,269.72 L 381.55,259.96 L 353.2,259.96 L 353.2,269.72 z " />

</clipPath>
    <clipPath
       clip-rule="nonzero"
       id="clp767">
<path
   id="path7626"
   d="M 353.2,269.72 L 381.55,269.72 L 381.55,259.96 L 353.2,259.96 L 353.2,269.72 z " />

</clipPath>
    <clipPath
       clip-rule="nonzero"
       id="clp768">
<path
   id="path7694"
   d="M 884.27,1291.1 L 1053.9,1291.1 L 1053.9,1266.6 L 884.27,1266.6 L 884.27,1291.1 z " />

</clipPath>
    <clipPath
       clip-rule="nonzero"
       id="clp769">
<path
   id="path7724"
   d="M 884.27,1291.1 L 1053.9,1291.1 L 1053.9,1266.6 L 884.27,1266.6 L 884.27,1291.1 z " />

</clipPath>
  </defs>
  <sodipodi:namedview
     id="base"
     pagecolor="#ffffff"
     bordercolor="#666666"
     borderopacity="1.0"
     inkscape:pageopacity="0.0"
     inkscape:pageshadow="2"
     inkscape:zoom="0.73978095"
     inkscape:cx="378.97249"
     inkscape:cy="161.36831"
     inkscape:document-units="px"
     inkscape:current-layer="layer1"
     inkscape:window-width="1051"
     inkscape:window-height="691"
     inkscape:window-x="43"
     inkscape:window-y="84" />
  <metadata
     id="metadata127777">
    <rdf:RDF>
      <cc:Work
         rdf:about="">
        <dc:format>image/svg+xml</dc:format>
        <dc:type
           rdf:resource="http://purl.org/dc/dcmitype/StillImage" />
      </cc:Work>
    </rdf:RDF>
  </metadata>
  <g
     inkscape:label="Ebene 1"
     inkscape:groupmode="layer"
     id="layer1"
     transform="translate(-2010.721,-420.5452)">
    <g
       id="g129070">
      <path
         style="font-size:3.15269995px;letter-spacing:-0.063054;word-spacing:0;fill:red;fill-rule:nonzero;stroke:none;stroke-width:0.033;stroke-linecap:butt;stroke-linejoin:miter;stroke-miterlimit:4;stroke-dasharray:none;font-family:fnt0, &quot;Futura&quot;, Arial"
         d="M 2829.2451,497.98709 L 2828.3146,447.38697 C 2828.3146,447.38697 2827.6478,439.39744 2817.1289,439.39744 C 2806.7429,439.39744 2806.0761,448.71867 2806.0761,448.71867 L 2805.4115,480.67656 C 2805.4115,480.67656 2791.0288,431.40813 2789.6974,427.41326 C 2788.3659,424.75008 2784.5044,419.42373 2775.7157,420.75543 C 2766.7942,423.41861 2768.1257,434.07131 2768.1257,434.07131 L 2781.5756,483.33974 C 2781.5756,483.33974 2750.1496,434.07131 2747.8877,430.07644 C 2745.6235,426.08178 2738.698,424.75008 2732.1736,428.74496 C 2725.6491,434.07131 2729.2448,443.39232 2729.2448,443.39232 L 2761.6012,495.32392 C 2761.6012,495.32392 2727.9133,466.0292 2721.7876,462.03433 C 2715.529,458.03967 2711.9333,460.70285 2706.7404,466.0292 C 2701.5474,471.35533 2707.0062,480.67656 2707.0062,480.67656 C 2707.0062,480.67656 2722.4544,493.99222 2725.6491,496.6554 C 2719.1246,496.6554 2716.8605,505.9764 2716.8605,505.9764 L 2705.8077,557.908 L 2700.4817,495.32392 C 2700.4817,495.32392 2697.9517,486.00269 2688.7643,486.00269 C 2679.5769,486.00269 2678.2454,497.98709 2678.2454,497.98709 L 2682.5057,560.57118 L 2663.865,512.63445 C 2663.865,512.63445 2656.6737,504.64492 2649.2165,509.97128 C 2641.6929,513.96593 2643.6647,523.28693 2643.6647,523.28693 L 2662.9323,575.21854 C 2662.9323,575.21854 2646.2612,552.58165 2642.6655,548.587 C 2639.0831,544.59234 2632.5454,544.59234 2627.3125,549.9187 C 2622.093,556.57653 2625.3541,563.23435 2625.3541,563.23435 L 2653.4768,604.51325 C 2653.4768,604.51325 2652.8122,636.47114 2685.4345,636.47114 C 2718.1919,636.47114 2726.0479,612.50278 2726.0479,612.50278 C 2726.0479,612.50278 2756.4082,597.85542 2765.5956,592.52907 C 2774.6523,587.20272 2769.4571,577.88171 2769.4571,577.88171 C 2763.5995,565.89753 2753.0806,572.55536 2753.0806,572.55536 L 2727.2464,585.87124 L 2724.7164,579.21341 L 2728.9789,561.90288 C 2728.9789,561.90288 2732.5723,563.23435 2735.1024,563.23435 C 2737.7675,564.56605 2777.3153,552.58165 2777.3153,552.58165 C 2777.3153,552.58165 2795.5572,565.89753 2820.7246,545.92382 C 2845.8919,527.28181 2829.2451,497.98709 2829.2451,497.98709 z M 2733.906,539.26599 L 2739.4978,508.63958 L 2759.8709,525.95011 L 2760.6707,531.27646 L 2733.906,539.26599"
         class="ps0319"
         id="path7420" />
      <g
         id="g129041">
        <path
           style="font-size:3.15269995px;letter-spacing:-0.063054;word-spacing:0;fill:black;fill-rule:nonzero;stroke:none;stroke-width:0.05;stroke-linecap:butt;stroke-linejoin:miter;stroke-miterlimit:4;stroke-dasharray:none;font-family:fnt0, &quot;Futura&quot;, Arial"
           d="M 2057.7017,693.13979 L 2085.3082,693.13979 C 2085.3082,693.13979 2097.5197,693.13979 2097.5197,706.45501 C 2097.5197,719.77 2085.3082,721.10148 2085.3082,721.10148 L 2057.7017,721.10148 L 2057.7017,745.06874 C 2057.7017,745.06874 2058.4881,747.73169 2061.6717,747.73169 C 2064.8664,747.73169 2097.5197,747.73169 2097.5197,747.73169 C 2097.5197,747.73169 2110.7016,747.73169 2110.7016,762.37838 C 2110.7016,777.02508 2097.5197,778.35655 2097.5197,778.35655 L 2057.7681,778.35655 C 2057.7681,778.35655 2032.3083,773.03042 2029.5656,747.73169 C 2029.5656,745.06874 2029.5656,721.10148 2029.5656,721.10148 L 2021.867,721.10148 C 2021.867,721.10148 2010.7211,719.77 2010.7211,706.45501 C 2010.7211,693.13979 2021.867,693.13979 2021.867,693.13979 L 2029.5656,693.13979 L 2029.5656,681.15628 C 2029.5656,681.15628 2028.3937,667.84106 2043.6137,667.84106 C 2058.847,667.84106 2057.7017,681.15628 2057.7017,681.15628 L 2057.7017,693.13979"
           class="ps010 ps128 ps20"
           id="path7426" />
        <path
           style="font-size:3.15269995px;letter-spacing:-0.063054;word-spacing:0;fill:black;fill-rule:nonzero;stroke:none;stroke-width:0.05;stroke-linecap:butt;stroke-linejoin:miter;stroke-miterlimit:4;stroke-dasharray:none;font-family:fnt0, &quot;Futura&quot;, Arial"
           d="M 2154.2482,679.8248 C 2128.826,679.8248 2108.2247,702.46035 2108.2247,729.09056 C 2108.2247,757.05225 2128.826,778.35655 2154.2482,778.35655 C 2179.6415,778.35655 2200.2561,757.05225 2200.2561,729.09056 C 2200.2561,702.46035 2179.6415,679.8248 2154.2482,679.8248 z M 2154.2482,749.06339 C 2144.0727,749.06339 2135.8312,739.7426 2135.8312,729.09056 C 2135.8312,718.43853 2144.0727,709.11796 2154.2482,709.11796 C 2164.4082,709.11796 2172.6363,718.43853 2172.6363,729.09056 C 2172.6363,739.7426 2164.4082,749.06339 2154.2482,749.06339"
           class="ps010 ps128 ps20"
           id="path7437" />
        <path
           style="font-size:3.15269995px;letter-spacing:-0.063054;word-spacing:0;fill:black;fill-rule:nonzero;stroke:none;stroke-width:0.05;stroke-linecap:butt;stroke-linejoin:miter;stroke-miterlimit:4;stroke-dasharray:none;font-family:fnt0, &quot;Futura&quot;, Arial"
           d="M 2234.2631,727.16823 L 2234.2631,764.44849 C 2234.2631,764.44849 2231.3587,776.43134 2220.2128,776.43134 C 2209.0536,776.43134 2206.3087,763.11701 2206.3087,763.11701 L 2206.3087,727.16823 C 2206.3087,727.16823 2209.5853,680.56763 2254.7182,680.56763 C 2254.7182,680.56763 2276.2257,679.23616 2288.9689,695.21366 C 2288.9689,695.21366 2299.0513,680.56763 2323.4743,680.56763 C 2323.4743,680.56763 2366.4759,680.56763 2370.9777,727.16823 C 2371.2568,743.14529 2370.9777,764.44849 2370.9777,764.44849 C 2370.9777,764.44849 2369.3914,776.43134 2357.7139,776.43134 C 2346.0341,776.43134 2343.2914,764.44849 2343.2914,764.44849 L 2343.1186,727.16823 C 2343.1186,727.16823 2338.3376,709.85947 2322.9426,709.85947 C 2307.5475,709.85947 2302.5938,727.16823 2302.5938,727.16823 L 2302.5938,764.44849 C 2302.5938,764.44849 2301.1693,776.43134 2288.9689,776.43134 C 2276.7574,776.43134 2274.3603,764.44849 2274.3603,764.44849 L 2274.3603,727.16823 C 2274.3603,727.16823 2270.1133,709.85947 2254.7182,709.85947 C 2239.3231,709.85947 2234.2631,727.16823 2234.2631,727.16823"
           class="ps010 ps128 ps20"
           id="path7443" />
        <path
           style="font-size:3.15269995px;letter-spacing:-0.063054;word-spacing:0;fill:black;fill-rule:nonzero;stroke:none;stroke-width:0.05;stroke-linecap:butt;stroke-linejoin:miter;stroke-miterlimit:4;stroke-dasharray:none;font-family:fnt0, &quot;Futura&quot;, Arial"
           d="M 2423.0914,694.9241 L 2450.6979,694.9241 C 2450.6979,694.9241 2462.9116,694.9241 2462.9116,708.23755 C 2462.9116,721.55099 2450.6979,722.88225 2450.6979,722.88225 L 2423.0914,722.88225 L 2423.0914,746.8464 C 2423.0914,746.8464 2423.8624,749.50936 2427.0725,749.50936 C 2430.2561,749.50936 2462.9116,749.50936 2462.9116,749.50936 C 2462.9116,749.50936 2476.0824,749.50936 2476.0824,764.15406 C 2476.0824,778.79875 2462.9116,780.13023 2462.9116,780.13023 L 2423.1711,780.13023 C 2423.1711,780.13023 2397.6936,774.80477 2394.9487,749.50936 C 2394.9487,746.8464 2394.9487,722.88225 2394.9487,722.88225 L 2387.239,722.88225 C 2387.239,722.88225 2376.1042,721.55099 2376.1042,708.23755 C 2376.1042,694.9241 2387.239,694.9241 2387.239,694.9241 L 2394.9487,694.9241 L 2394.9487,682.94192 C 2394.9487,682.94192 2393.7767,669.62869 2409.0145,669.62869 C 2424.2368,669.62869 2423.0914,682.94192 2423.0914,682.94192 L 2423.0914,694.9241"
           class="ps010 ps128 ps20"
           id="path7449" />
        <path
           style="font-size:3.15269995px;letter-spacing:-0.063054;word-spacing:0;fill:black;fill-rule:nonzero;stroke:none;stroke-width:0.05;stroke-linecap:butt;stroke-linejoin:miter;stroke-miterlimit:4;stroke-dasharray:none;font-family:fnt0, &quot;Futura&quot;, Arial"
           d="M 2519.6733,682.35372 C 2494.2623,682.35372 2473.6565,704.98529 2473.6565,731.61085 C 2473.6565,759.56766 2494.2623,780.86797 2519.6733,780.86797 C 2545.0977,780.86797 2565.6879,759.56766 2565.6879,731.61085 C 2565.6879,704.98529 2545.0977,682.35372 2519.6733,682.35372 z M 2519.6733,751.5799 C 2509.5111,751.5799 2501.2675,742.26111 2501.2675,731.61085 C 2501.2675,720.96058 2509.5111,711.64179 2519.6733,711.64179 C 2529.8355,711.64179 2538.0792,720.96058 2538.0792,731.61085 C 2538.0792,742.26111 2529.8355,751.5799 2519.6733,751.5799"
           class="ps010 ps128 ps20"
           id="path7455" />
        <path
           style="font-size:3.15269995px;letter-spacing:-0.063054;word-spacing:0;fill:black;fill-rule:nonzero;stroke:none;stroke-width:0.05;stroke-linecap:butt;stroke-linejoin:miter;stroke-miterlimit:4;stroke-dasharray:none;font-family:fnt0, &quot;Futura&quot;, Arial"
           d="M 2599.7082,729.97364 L 2599.7082,767.2468 C 2599.7082,767.2468 2596.7927,779.22722 2585.6446,779.22722 C 2574.4832,779.22722 2571.7383,765.91555 2571.7383,765.91555 L 2571.7383,729.97364 C 2571.7383,729.97364 2575.0282,683.38235 2620.1544,683.38235 C 2620.1544,683.38235 2641.6508,682.05109 2654.4627,698.02527 C 2654.4627,698.02527 2664.4521,683.38235 2688.9593,683.38235 C 2688.9593,683.38235 2731.9786,683.38235 2736.5092,729.97364 C 2736.6421,745.94782 2736.5092,767.2468 2736.5092,767.2468 C 2736.5092,767.2468 2734.7767,779.22722 2723.19,779.22722 C 2711.4681,779.22722 2708.8051,767.2468 2708.8051,767.2468 L 2708.5393,729.97364 C 2708.5393,729.97364 2703.7429,712.66842 2688.4276,712.66842 C 2672.9771,712.66842 2668.0478,729.97364 2668.0478,729.97364 L 2668.0478,767.2468 C 2668.0478,767.2468 2666.5834,779.22722 2654.4627,779.22722 C 2642.1825,779.22722 2639.7987,767.2468 2639.7987,767.2468 L 2639.7987,729.97364 C 2639.7987,729.97364 2635.5495,712.66842 2620.1544,712.66842 C 2604.7439,712.66842 2599.7082,729.97364 2599.7082,729.97364"
           class="ps010 ps128 ps20"
           id="path7461" />
        <path
           style="font-size:3.15269995px;letter-spacing:-0.063054;word-spacing:0;fill:black;fill-rule:nonzero;stroke:none;stroke-width:0.05;stroke-linecap:butt;stroke-linejoin:miter;stroke-miterlimit:4;stroke-dasharray:none;font-family:fnt0, &quot;Futura&quot;, Arial"
           d="M 2738.9705,695.83421 C 2730.1797,695.83421 2723.7859,687.84734 2723.7859,678.52943 C 2723.7859,669.21153 2730.8443,662.55591 2738.9705,662.55591 C 2747.0945,662.55591 2754.02,669.21153 2754.02,678.52943 C 2754.02,689.17837 2747.0945,695.83421 2738.9705,695.83421 z M 2738.9705,665.21798 C 2732.3087,665.21798 2727.1157,670.54256 2727.1157,678.52943 C 2727.1157,686.5163 2731.6441,693.17192 2738.9705,693.17192 C 2745.4972,693.17192 2750.6902,686.5163 2750.6902,678.52943 C 2750.6902,670.54256 2745.4972,665.21798 2738.9705,665.21798 z M 2735.9066,687.84734 L 2733.1085,687.84734 L 2733.1085,670.54256 L 2739.6352,670.54256 C 2743.7647,670.54256 2745.763,671.8736 2745.763,675.86714 C 2745.763,678.52943 2743.8976,679.86047 2741.3676,679.86047 L 2746.1618,687.84734 L 2742.965,687.84734 L 2738.5695,681.19172 L 2735.9066,681.19172 L 2735.9066,687.84734 z M 2739.1034,678.52943 C 2741.1018,678.52943 2742.965,678.52943 2742.965,675.86714 C 2742.965,673.20485 2740.9666,673.20485 2739.3693,673.20485 L 2735.9066,673.20485 L 2735.9066,678.52943 L 2739.1034,678.52943"
           class="ps010 ps128 ps20"
           id="path7467" />
      </g>
    </g>
  </g>
</svg>
