<svg width="87" height="24" viewBox="0 0 87 24" fill="none" xmlns="http://www.w3.org/2000/svg">
<path d="M36.5704 11.0784C35.6621 11.0784 34.7705 11.4403 33.8469 12.1841C33.5109 11.45 32.8399 11.0784 31.8517 11.0784C31.0069 11.0784 30.1611 11.4234 29.3361 12.1041V11.2142L27.0415 11.3793V19.6534H29.3361V13.7527C29.6207 13.541 30.2978 13.094 30.952 13.094C31.4989 13.094 31.838 13.2724 31.838 14.1602V19.6534H34.132V13.6307C34.5392 13.3821 35.1299 13.094 35.686 13.094C36.3773 13.094 36.6345 13.3831 36.6345 14.1602V19.6534H38.9285V13.7061C38.9285 11.9381 38.1569 11.0784 36.5704 11.0784ZM47.5176 14.3638V19.6534H45.4198L45.2764 18.886C44.8001 19.3469 44.1027 19.8405 42.9249 19.8405C41.3319 19.8405 40.3803 18.8348 40.3803 17.1498C40.3803 14.6472 42.8848 14.3453 45.254 14.273V14.2228C45.254 13.2145 44.918 12.8905 43.8714 12.8905C43.0525 12.8905 42.0542 13.2652 41.3934 13.5133L41.3303 13.5369L40.8815 11.7909L40.9313 11.7709C41.5891 11.5126 42.896 11.0784 44.2598 11.0784C46.6041 11.0784 47.5176 11.9996 47.5176 14.3638ZM45.254 15.6653C43.8282 15.7519 42.6591 15.9195 42.6591 16.9622C42.6591 17.7004 42.9997 18.0443 43.7316 18.0443C44.3863 18.0443 44.8875 17.7383 45.254 17.4635V15.6653ZM49.4116 19.6534H51.7061V11.2142L49.4116 11.3793V19.6534ZM60.8843 13.7061V19.6534H58.5903V14.1602C58.5903 13.3831 58.3331 13.094 57.6423 13.094C56.9306 13.094 56.1829 13.5769 55.9328 13.7537V19.6534H53.6393V11.3793L55.9328 11.2142V12.1067C56.7832 11.4239 57.6555 11.0784 58.5267 11.0784C60.1132 11.0784 60.8843 11.9381 60.8843 13.7061ZM74.5296 16.831L72.8649 11.3086L72.8517 11.2655H70.487L73.2909 19.6534H75.6596L78.4635 11.2655H76.2233L74.5296 16.831ZM85.9993 14.3638V19.6534H83.9015L83.7576 18.886C83.2813 19.3469 82.5839 19.8405 81.4062 19.8405C79.8131 19.8405 78.862 18.8348 78.862 17.1498C78.862 14.6472 81.3665 14.3453 83.7358 14.273V14.2228C83.7358 13.2145 83.3998 12.8905 82.3532 12.8905C81.5343 12.8905 80.5359 13.2652 79.8756 13.5133L79.8121 13.5369L79.3627 11.7909L79.4125 11.7709C80.0703 11.5126 81.3777 11.0784 82.7405 11.0784C85.0854 11.0784 85.9993 11.9996 85.9993 14.3638ZM83.7358 15.6653C82.31 15.7519 81.1413 15.9195 81.1413 16.9622C81.1413 17.7004 81.4819 18.0443 82.2134 18.0443C82.8681 18.0443 83.3698 17.7383 83.7358 17.4635V15.6653ZM50.5594 7.86892C49.7298 7.86892 49.194 8.37846 49.194 9.16686C49.194 9.95526 49.7298 10.4643 50.5594 10.4643C51.3879 10.4643 51.9232 9.95526 51.9232 9.16686C51.9232 8.37846 51.3879 7.86892 50.5594 7.86892ZM70.1967 15.4126C70.1967 18.2786 68.8141 19.8569 66.302 19.8569C63.795 19.8569 62.4698 18.358 62.4698 15.5223C62.4698 12.6567 63.8529 11.0784 66.3645 11.0784C68.8715 11.0784 70.1967 12.5768 70.1967 15.4126ZM67.8559 15.4592C67.8559 13.6502 67.3817 12.8438 66.3177 12.8438C65.2899 12.8438 64.8106 13.6799 64.8106 15.4756C64.8106 17.2841 65.2854 18.091 66.3488 18.091C67.3771 18.091 67.8559 17.2544 67.8559 15.4592Z" fill="white"/>
<path d="M23.6519 0.926477C21.4499 -1.29366 15.8523 0.639414 10.366 5.24269C15.0237 1.98964 19.4868 0.989527 21.363 2.88108C24.0805 5.62152 21.2908 12.1292 15.8569 18.0468C16.2478 17.6839 16.6366 17.3076 17.0219 16.919C23.2321 10.6569 26.2001 3.49673 23.6519 0.926477ZM10.6792 8.30352C6.33709 12.6818 4.16556 17.5911 5.82878 19.2678C7.32018 20.7724 11.3898 19.1643 15.346 15.6575C14.887 16.1763 14.4036 16.6935 13.8958 17.2056C8.56912 22.5773 2.65433 25.3218 0.684593 23.3349C-1.28514 21.3491 1.43589 15.3838 6.76256 10.0121C10.759 5.98189 15.133 3.47879 17.8652 3.28246C15.7501 4.05702 13.1308 5.83118 10.6792 8.30352Z" fill="white"/>
<path d="M20.3033 4.83383C19.0219 3.54153 15.1576 5.34389 11.6721 8.85889C8.29686 12.2627 6.51419 16.0247 7.56895 17.4324C7.86479 16.0273 9.11271 14.0204 10.9716 12.1453C13.7028 9.39098 16.7182 7.96591 17.7058 8.96192C18.3809 9.64216 17.9351 11.2759 16.7151 13.1208C19.9328 9.71957 21.534 6.07488 20.3033 4.83383Z" fill="#D82130"/>
</svg>
