<?xml version="1.0" encoding="UTF-8" standalone="no"?>
<!-- Created with Inkscape (http://www.inkscape.org/) -->

<svg
   xmlns:dc="http://purl.org/dc/elements/1.1/"
   xmlns:cc="http://creativecommons.org/ns#"
   xmlns:rdf="http://www.w3.org/1999/02/22-rdf-syntax-ns#"
   xmlns:svg="http://www.w3.org/2000/svg"
   xmlns="http://www.w3.org/2000/svg"
   version="1.1"
   width="591.01562"
   height="153.39093"
   id="svg3979">
  <defs
     id="defs3981" />
  <metadata
     id="metadata3984">
    <rdf:RDF>
      <cc:Work
         rdf:about="">
        <dc:format>image/svg+xml</dc:format>
        <dc:type
           rdf:resource="http://purl.org/dc/dcmitype/StillImage" />
        <dc:title></dc:title>
      </cc:Work>
    </rdf:RDF>
  </metadata>
  <g
     transform="translate(-54.492184,-455.66672)"
     id="layer1">
    <path
       d="m 572.63704,603.36609 c -37.10382,0 -67.19331,-30.24476 -67.19331,-67.53203 l 0,-74.48991 134.38664,0 0,74.48991 c 0,37.28727 -30.08952,67.53203 -67.19333,67.53203"
       id="path461"
       style="fill:#ffffff;fill-opacity:1;fill-rule:evenodd;stroke:none" />
    <path
       d="m 640.50782,460.66672 0,75.16734 c 0,37.66835 -30.40001,68.22359 -67.87078,68.22359 -37.47075,0 -67.87074,-30.55524 -67.87074,-68.22359 l 0,-75.16734 135.74152,0 z m -2.52629,75.16734 c 0,36.27111 -29.25684,65.68322 -65.34449,65.68322 -36.05944,0 -65.33038,-29.41211 -65.33038,-65.68322 l 0,-72.62694 130.67487,0 0,72.62694 z m 0,0"
       id="path463"
       style="fill:#000000;fill-opacity:1;fill-rule:evenodd;stroke:none" />
    <path
       d="m 575.17745,596.64818 c -0.59276,1.0585 -1.4537,1.93354 -2.54041,2.5545 -1.0585,-0.59275 -1.91941,-1.4819 -2.5263,-2.54036 0.98794,-0.15537 1.8912,-0.57866 2.5263,-1.35487 0.67743,0.76208 1.55247,1.18549 2.54041,1.34073 M 560.796,589.90203 c -1.1714,-0.23991 -2.28635,-0.80444 -3.18959,-1.62304 0.25399,-1.19961 0.81856,-2.31455 1.63713,-3.18958 0.45162,0.87503 1.11497,1.6089 2.07465,1.97587 -0.5504,0.8609 -0.67743,1.84881 -0.52219,2.83675 m 2.0041,-15.73632 c -0.14124,-1.21371 0.0563,-2.45568 0.56453,-3.55653 1.19963,-0.14124 2.42747,0.0563 3.52832,0.56454 -0.70566,0.70564 -1.19963,1.56656 -1.25611,2.59684 -0.9738,-0.2399 -1.96175,-0.0565 -2.83674,0.39515 m 15.58107,-2.99199 c 1.1008,-0.5081 2.34276,-0.70567 3.55652,-0.56454 0.49398,1.10085 0.69156,2.32869 0.55044,3.54243 -0.88916,-0.46573 -1.8771,-0.6492 -2.865,-0.40927 -0.0705,-0.98794 -0.53631,-1.84885 -1.24196,-2.56862 m 7.64936,13.90156 c 0.83269,0.88916 1.41135,2.0041 1.63716,3.20371 -0.90325,0.8186 -2.00409,1.38313 -3.18959,1.62304 0.15535,-0.98794 0.0289,-1.97585 -0.5081,-2.83675 0.91738,-0.39519 1.60891,-1.11497 2.06053,-1.99 m -13.39349,2.49806 c -2.30047,0 -4.17754,-1.86293 -4.17754,-4.17752 0,-2.31458 1.87707,-4.17754 4.17754,-4.17754 2.3146,0 4.19165,1.86296 4.19165,4.17754 0,2.31459 -1.87705,4.17752 -4.19165,4.17752 m -61.95729,-121.00728 51.24532,0 c -1.8912,2.10288 -3.75413,4.234 -5.46186,6.52034 -6.43564,8.62322 -5.82877,20.66186 -12.34912,29.08747 -5.70174,7.38125 -15.35524,9.30066 -20.69005,16.10324 -6.06871,7.73411 -6.46388,18.3473 -12.13745,26.25073 -0.40927,-2.85087 -0.60684,-5.74412 -0.60684,-8.69378 l 0,-69.268 z m 60.26369,24.21841 0,45.04959 c 0,22.72237 -12.08097,42.59388 -30.13184,53.47521 -9.18776,-5.54652 -16.85126,-13.4217 -22.12963,-22.82118 3.28842,-3.4154 6.50623,-6.87316 8.99016,-10.92366 5.0949,-8.2704 5.857,-18.72834 11.86929,-26.42005 5.61705,-7.1131 15.45402,-9.08898 20.69006,-16.08917 5.03843,-6.68968 6.57678,-15.12943 10.71196,-22.27074"
       id="path465"
       style="fill:#0a9348;fill-opacity:1;fill-rule:nonzero;stroke:none" />
    <path
       d="m 574.31654,466.56606 60.29193,0 0,69.268 c 0,22.72237 -12.0951,42.59388 -30.14597,53.47521 -18.03678,-10.88133 -30.14596,-30.75284 -30.14596,-53.47521 l 0,-69.268 z m 57.80799,40.02528 c 0,4.03641 -3.66947,5.78644 -3.66947,8.79256 0,3.58478 3.55657,5.29251 3.55657,8.75025 0,3.54244 -2.82265,4.16342 -4.62917,3.54244 0,0 1.12907,-0.28217 1.12907,-1.65127 0,-4.23399 -9.04662,-4.00817 -9.04662,-10.64142 0,-3.45775 2.46981,-6.22394 2.46981,-8.27038 0,-1.03028 -0.79034,-2.48393 -2.11697,-2.96378 1.83472,-1.31252 4.95375,-0.49396 5.7441,1.496 0.63509,-1.67946 1.24196,-4.16339 0.47984,-6.57677 4.24809,1.63712 6.06872,4.41743 6.08284,7.49415 l 0,0.0289 z M 597.61756,481.3709 c 0.9597,1.59482 3.37308,0 3.37308,0 0,0 -2.93558,-2.76622 -3.37308,0 m 15.0024,87.99631 c 0,-2.07465 2.04645,-3.89528 2.25814,-4.06461 0.0846,0.0144 0.19763,0.0289 0.31034,0.0289 1.11495,0 2.0182,-0.91738 2.0182,-2.03232 0,-0.31035 -0.0705,-0.59274 -0.18354,-0.86091 5.57475,-9.94988 4.09284,-11.3753 -4.54447,-18.43196 -2.3426,-1.93347 -3.07651,-7.5929 -3.07651,-12.77246 -3.44361,-8.01635 -12.71606,-7.08487 -16.20203,-14.94598 l 4.05051,0.21173 c 2.06056,0.1272 3.52834,-1.14316 4.234,-2.17344 0.6351,-0.95972 0,-2.28635 -1.04437,-1.93354 -0.45164,1.29845 -1.73594,2.34282 -3.13317,2.25813 l -10.07687,-0.55026 c -2.01821,1.98998 -1.56659,4.86909 1.9194,6.37923 l 0,1.51008 2.39926,0 c 0.86091,2.70975 0.90325,5.15138 0.11276,6.7885 -1.93353,0 -4.07875,-2.28634 -4.07875,-2.28634 0,-0.23991 0.0144,-0.4234 0.0144,-0.64921 0,-1.10085 -0.88916,-2.01819 -2.01822,-2.01819 -0.16945,0 -0.31036,0.0144 -0.45162,0.0423 -1.14317,-1.80649 -0.9597,-5.67356 -3.90938,-9.99222 l 2.24404,-2.72388 8.15746,-2.75205 c 0.254,-9.56882 11.26242,-11.79872 12.95601,-18.79891 2.3569,0 3.82468,-0.70565 4.96787,-2.94969 0.28217,-0.56453 0.14124,-1.9194 -1.32666,-1.63712 -0.81856,2.32869 -1.91941,2.72387 -3.42953,2.72387 -3.96586,0 -7.18366,-0.66335 -7.71996,1.10081 -0.87504,2.99204 -5.02431,1.11497 -5.02431,1.11497 l 1.016,-0.71977 c 0.0845,0 0.16945,0.0144 0.254,0.0144 0.76212,0 1.39721,-0.40929 1.39721,-0.91735 0,-0.49396 -0.63509,-0.90325 -1.39721,-0.90325 -0.77621,0 -1.38313,0.40929 -1.38313,0.90325 l 0,0.0987 -0.9456,0.67744 c -1.21372,0 -1.43956,-0.95973 -1.48191,-1.39723 0.49398,0 0.87507,-0.40927 0.87507,-0.91737 0,-0.47984 -0.38109,-0.88913 -0.83272,-0.88913 0.0289,-0.36697 0.2399,-1.12906 1.11497,-1.80649 l 7.07079,-5.6171 c 1.00199,-0.80447 3.04846,-1.90527 3.96576,-2.37103 -0.12676,-1.53834 0.45163,-3.57065 0.45163,-4.99609 0,0 2.08879,0.90325 2.93559,2.9073 0.62101,1.48191 0.22583,2.41338 -0.029,3.16139 0.36693,0.59277 1.97579,0.59277 2.14518,-0.93148 0.0845,-0.62096 0.0705,-1.32666 -0.15536,-2.15931 2.75209,0.28218 6.61912,1.22785 12.56081,0.6351 -1.19958,1.39722 -2.75209,2.39925 -4.37509,3.13311 2.96382,0.69158 6.59087,2.15936 8.42565,5.1937 -1.43955,0.71977 -2.99202,1.19965 -4.54452,1.49603 2.8509,2.46981 3.96588,6.18159 6.37921,7.67761 -3.13315,0.875 -5.74409,0.63511 -7.7905,-0.0563 0.98794,2.01823 2.51216,4.37513 4.61499,5.44776 -2.85083,1.2984 -5.64527,2.0182 -7.79052,2.44159 0.69157,1.12906 1.6795,2.52629 2.86499,3.44363 -2.21577,0.0705 -4.00815,0.69155 -5.03843,1.14319 -0.18355,2.61096 -0.90324,7.98813 5.68771,14.94597 8.76429,6.63325 10.95189,11.65755 4.03636,20.56303 0,4.51625 0.76212,6.33688 3.10493,10.95189 -0.19762,0.45164 -1.17143,2.62511 -2.14521,5.27839 -1.03028,2.90734 -1.8065,6.11106 -1.8065,8.91959 0,0 -1.49603,-0.029 -1.49603,1.5666 l 0,2.39925 c -2.73798,0.8609 -5.49007,0.87502 -7.11307,0.0986 m -34.13993,-58.51381 c -1.27017,-1.25609 -1.28432,-3.93764 -1.27017,-4.4316 0.18353,-0.0846 0.35262,-0.21173 0.49396,-0.35299 0.79035,-0.80443 0.79035,-2.07462 0,-2.86497 -0.1272,-0.1272 -0.26809,-0.23991 -0.40928,-0.32444 1.14315,-3.3731 3.38718,-5.13725 4.29043,-9.92166 l 3.48598,0 8.31271,6.52033 c -1.48191,1.66539 -2.70975,3.62714 -3.27428,6.12516 l -4.41664,-8.24207 c -2.83674,0 -4.58682,2.34282 -3.11903,5.85699 l -1.0585,1.07262 1.63715,1.73595 c -1.21374,2.42746 -2.87911,4.13518 -4.67149,4.82675 m 13.02656,38.11997 11.74225,0 c 0,-4.84088 -3.59887,-8.04459 -3.59887,-13.70399 0,-3.6977 1.46778,-6.04052 5.32069,-7.16958 0.98793,0.88916 1.86297,2.00409 2.56861,3.52835 0.029,4.98196 0.87504,8.38327 2.06054,10.85308 0,0 -2.68154,2.03232 -2.68154,9.52647 0,0 -10.61318,-0.49396 -11.88336,0.88914 l -1.67948,0 0,2.39928 c -2.61097,0.8609 -5.05257,0.88912 -6.77437,0.0846 0,-2.117 2.27222,-4.05054 2.27222,-4.05054 0.25398,0 0.43752,0.029 0.63513,0.029 1.12906,0 2.04639,-0.91733 2.04639,-2.0323 0,-0.11276 -0.0144,-0.23991 -0.0289,-0.353 m -26.34949,44.72501 c -2.75211,-1.98998 -3.76826,-5.47598 -1.12907,-6.78851 0.18355,-0.47984 0,-1.03025 -0.42341,-1.28431 -2.92143,0.46575 -4.12106,-2.93557 -3.0908,-6.1816 1.07262,-3.23193 4.05051,-5.27837 6.12518,-3.1755 0.49397,0.0423 0.97382,-0.29625 1.0726,-0.79033 -1.32667,-2.63918 1.52424,-4.84084 4.92553,-4.84084 3.40131,0 6.26631,2.20166 4.92553,4.84084 0.1272,0.49396 0.57865,0.83267 1.07263,0.79033 2.10286,-2.10287 5.06665,-0.0563 6.12516,3.1896 1.05848,3.23193 -0.15537,6.63325 -3.0767,6.1675 -0.42341,0.25399 -0.59275,0.80447 -0.42341,1.28431 2.63919,1.34078 1.63715,4.79853 -1.14316,6.78851 -2.72387,1.98996 -6.35099,1.90527 -6.80262,-1.01616 -0.39516,-0.32444 -0.95968,-0.32444 -1.34075,0 -0.46575,2.92143 -4.07874,3.00612 -6.81671,1.01616 m 14.02859,-10.30269 c 0,3.59887 -2.92144,6.5203 -6.54856,6.5203 -3.613,0 -6.52032,-2.92143 -6.52032,-6.5203 0,-3.61301 2.90732,-6.54857 6.52032,-6.54857 3.62712,0 6.54856,2.93556 6.54856,6.54857"
       id="path467"
       style="fill:#e53d30;fill-opacity:1;fill-rule:evenodd;stroke:none" />
    <path
       d="m 365.55285,508.94825 3.88118,0 0,2.25813 c 0.28218,-0.28218 0.60684,-0.56454 0.98791,-0.84679 0.42338,-0.31036 0.8609,-0.59279 1.34078,-0.84681 0.50806,-0.28218 1.0726,-0.49397 1.6936,-0.63509 0.64918,-0.14124 1.35488,-0.21174 2.11696,-0.21174 1.49603,0 2.68153,0.42342 3.52832,1.2702 0.88916,0.84681 1.34078,2.10288 1.34078,3.74004 l 0,12.06683 -3.95171,0 0,-11.0789 c 0,-1.77828 -0.8327,-2.68153 -2.46982,-2.68153 -0.84681,0 -1.65129,0.21173 -2.39932,0.6351 -0.70562,0.39515 -1.43949,0.90324 -2.1875,1.55247 l 0,11.57286 -3.88118,0 0,-16.79482 z m 0,0 m -11.36115,17.14766 c -1.04446,0 -2.04644,-0.16946 -3.03438,-0.49397 -0.95972,-0.31037 -1.8065,-0.84682 -2.54038,-1.55247 -0.76212,-0.70566 -1.38312,-1.5807 -1.83475,-2.68153 -0.47985,-1.12907 -0.70565,-2.46982 -0.70565,-4.02228 0,-1.58071 0.2399,-2.92144 0.77625,-4.02228 0.50806,-1.12906 1.14316,-2.0041 1.90525,-2.68154 0.79037,-0.70566 1.65128,-1.19963 2.61101,-1.48188 0.93145,-0.31035 1.84881,-0.49396 2.75205,-0.49396 0.93151,0 1.84884,0.18353 2.75209,0.49396 0.87499,0.28218 1.6512,0.77622 2.32869,1.48188 0.70568,0.70566 1.22788,1.66538 1.62299,2.82266 0.42344,1.12905 0.63513,2.5404 0.63513,4.234 l 0,0.91734 -11.43178,0 c 0.0289,1.52424 0.49397,2.61097 1.34083,3.31662 0.84676,0.70566 1.86288,1.0585 3.1049,1.0585 1.07262,0 1.97587,-0.15536 2.68152,-0.49396 0.73388,-0.36694 1.42544,-0.86092 2.04641,-1.48188 l 2.04643,2.0464 c -0.90324,0.98795 -1.94761,1.75007 -3.1049,2.25813 -1.12909,0.5081 -2.45572,0.77626 -3.95171,0.77626 z m 3.74,-10.3733 c -0.254,-2.62505 -1.53839,-3.95171 -3.88119,-3.95171 -0.42335,0 -0.88909,0.0705 -1.34073,0.21172 -0.42345,0.14124 -0.83272,0.39519 -1.19966,0.7057 -0.39514,0.33853 -0.69152,0.76209 -0.91733,1.27019 -0.254,0.47983 -0.42342,1.05848 -0.56457,1.76415 l 7.90348,0 z m 0,0 m -19.89971,-13.40762 3.95171,0 0,23.42808 -3.95171,0 0,-23.42808 z m 0,0 m -14.90365,23.71033 c -0.6633,0 -1.29843,-0.0987 -1.90527,-0.28218 -0.56452,-0.16947 -1.05851,-0.45163 -1.4819,-0.84679 -0.42342,-0.36694 -0.76213,-0.80447 -0.98794,-1.34076 -0.2399,-0.56451 -0.35264,-1.1573 -0.35264,-1.83473 0,-0.93148 0.18353,-1.77826 0.56454,-2.54037 0.42337,-0.73392 1.05846,-1.41136 1.90527,-1.97589 0.88913,-0.59275 2.0182,-1.08672 3.3872,-1.48187 1.4113,-0.42341 3.1049,-0.73391 5.08077,-0.98794 l 0,-0.49396 c 0,-0.84679 -0.23991,-1.43957 -0.70564,-1.83473 -0.42342,-0.36693 -1.11499,-0.56452 -2.04645,-0.56452 -1.18549,0 -2.244,0.25398 -3.1755,0.70564 -0.94556,0.47985 -1.76416,0.98794 -2.46981,1.55248 l -1.90528,-2.39924 c 0.88912,-0.84683 2.01818,-1.55248 3.38719,-2.11701 1.35487,-0.59275 2.90732,-0.91738 4.65737,-0.91738 1.12906,0 2.06053,0.14124 2.82266,0.4234 0.79034,0.254 1.42544,0.62098 1.90527,1.12906 0.46575,0.53632 0.79035,1.17141 0.98795,1.9053 0.22581,0.76211 0.35298,1.62302 0.35298,2.61096 l 0,6.91551 c 0,0.98793 0.0144,1.82061 0.0705,2.46984 0.0845,0.67743 0.22581,1.19962 0.42341,1.623 l -3.95173,0 c -0.099,-0.36694 -0.19763,-0.70567 -0.28216,-0.98792 -0.0563,-0.28218 -0.0705,-0.6492 -0.0705,-1.12906 -0.90326,0.84679 -1.83473,1.4678 -2.82267,1.83473 -0.98794,0.36693 -2.11699,0.56452 -3.38717,0.56452 z m 1.41132,-3.03436 c 1.03028,0 1.91941,-0.15534 2.68154,-0.49396 0.79033,-0.36694 1.49599,-0.84679 2.11699,-1.41131 l 0,-3.74003 c -2.3569,0.33852 -4.14931,0.81855 -5.36306,1.41134 -1.1855,0.56453 -1.76416,1.31253 -1.76416,2.18753 0,0.70568 0.21173,1.24197 0.6351,1.55247 0.42339,0.33854 0.98794,0.49396 1.69359,0.49396 z m 0,0 m -16.11733,-10.93777 -2.96383,0 0,-3.10494 2.96383,0 0,-1.69361 c 0,-0.70564 0.0705,-1.35487 0.21171,-1.97584 0.18354,-0.59277 0.46576,-1.12906 0.84681,-1.55245 0.42337,-0.45164 0.9879,-0.80448 1.69359,-1.05851 0.70567,-0.28217 1.59478,-0.42341 2.68151,-0.42341 0.18353,0 0.36697,0.0423 0.56453,0.0705 0.22581,0 0.46575,0 0.7057,0 0.22581,0 0.43749,0.0423 0.63509,0.0705 0.18353,0 0.29626,0 0.35262,0 l 0,3.03438 c -0.0986,-0.0289 -0.28218,-0.0705 -0.56453,-0.0705 -0.28217,-0.029 -0.5504,-0.0705 -0.77623,-0.0705 -0.33852,0 -0.6633,0.0563 -0.98792,0.14124 -0.28218,0.0563 -0.55041,0.18355 -0.77622,0.353 -0.23991,0.14124 -0.42341,0.35299 -0.56453,0.63509 -0.099,0.28218 -0.14124,0.6351 -0.14124,1.0585 l 0,1.48188 3.66943,0 0,3.10493 -3.66943,0 0,13.68988 -3.88117,0 0,-13.68988 z m 0,0 m -8.73614,13.90156 c -1.10084,0 -1.96174,-0.0987 -2.61097,-0.28218 -0.67744,-0.16945 -1.1855,-0.45163 -1.55247,-0.84678 -0.39514,-0.42341 -0.63509,-0.91738 -0.77622,-1.48191 -0.14124,-0.56453 -0.21171,-1.21375 -0.21171,-1.97583 l 0,-9.31479 -2.89323,0 0,-3.10491 2.89323,0 0,-5.85703 3.88115,0 0,5.85703 4.30453,0 0,3.10491 -4.30453,0 0,8.32684 c 0,0.90324 0.15536,1.55247 0.49393,1.97584 0.31036,0.3952 0.98795,0.56453 1.97589,0.56453 0.28218,0 0.56452,-0.0144 0.84676,-0.0705 0.31036,-0.029 0.59279,-0.0846 0.84683,-0.14124 l 0,3.03438 c -0.14124,0 -0.33855,0.0144 -0.56453,0.0705 -0.19763,0.0423 -0.42342,0.0705 -0.70567,0.0705 -0.25397,0.0423 -0.49396,0.0705 -0.77624,0.0705 -0.28218,0 -0.56453,0 -0.84678,0 z m 0,0 m -17.58515,0.1411 c -1.55248,0 -2.992,-0.23991 -4.30457,-0.7057 -1.32662,-0.50806 -2.3569,-1.15727 -3.1049,-1.97583 l 2.11701,-2.32869 c 0.60686,0.53627 1.35487,0.98789 2.25812,1.41131 0.93146,0.39518 1.94761,0.56452 3.03434,0.56452 1.03028,0 1.83471,-0.14124 2.39925,-0.42339 0.60687,-0.31036 0.91738,-0.80444 0.91738,-1.48188 0,-0.36694 -0.0987,-0.64923 -0.28218,-0.84681 -0.19763,-0.22581 -0.47986,-0.43751 -0.84679,-0.63509 -0.33853,-0.16946 -0.7339,-0.31037 -1.19962,-0.42342 -0.4234,-0.14124 -0.90324,-0.2399 -1.41134,-0.35297 -0.70565,-0.16947 -1.43953,-0.36696 -2.18757,-0.56455 -0.76209,-0.22581 -1.43953,-0.52218 -2.04639,-0.91733 -0.62102,-0.36695 -1.11498,-0.86091 -1.48192,-1.48192 -0.38106,-0.59275 -0.56452,-1.36897 -0.56452,-2.32869 0,-0.73387 0.14124,-1.42544 0.42339,-2.04643 0.32446,-0.59276 0.74801,-1.12906 1.27019,-1.55244 0.56454,-0.42341 1.21376,-0.73391 1.97588,-0.98793 0.74801,-0.22581 1.59478,-0.353 2.54037,-0.353 1.59481,0 2.90734,0.21174 3.95173,0.6351 1.07262,0.4234 2.06053,0.98795 2.96377,1.69359 l -1.90528,2.54038 c -0.28217,-0.22581 -0.63509,-0.45164 -1.05849,-0.70567 -0.38107,-0.22581 -0.77621,-0.4234 -1.19963,-0.56453 -0.42341,-0.16945 -0.84678,-0.31034 -1.27019,-0.4234 -0.4234,-0.0846 -0.83268,-0.14124 -1.19963,-0.14124 -1.0867,0 -1.83473,0.18354 -2.25811,0.49397 -0.38107,0.33854 -0.56454,0.74799 -0.56454,1.19963 0,0.33853 0.0845,0.621 0.28218,0.84681 0.18354,0.25399 0.43754,0.46574 0.77625,0.63509 0.32445,0.14124 0.70566,0.28218 1.12907,0.42342 0.46571,0.11276 0.95969,0.21171 1.48186,0.35297 0.70566,0.14124 1.42544,0.33855 2.18757,0.56455 0.748,0.19762 1.42544,0.47983 2.04644,0.84676 0.60687,0.33855 1.1008,0.8186 1.48187,1.41136 0.42341,0.62097 0.63509,1.41129 0.63509,2.39924 0,0.90325 -0.19763,1.67948 -0.56454,2.32869 -0.33852,0.67744 -0.83265,1.19962 -1.48185,1.62304 -0.66335,0.4234 -1.41136,0.74799 -2.25813,0.91737 -0.84682,0.22582 -1.75007,0.35298 -2.68154,0.35298 z m 0,0 m -17.5428,0 c -1.03026,0 -2.04642,-0.16945 -3.03436,-0.49396 -0.94559,-0.31037 -1.79242,-0.84683 -2.5404,-1.55248 -0.74801,-0.70566 -1.36897,-1.58069 -1.83472,-2.68153 -0.46576,-1.12907 -0.70567,-2.46981 -0.70567,-4.02228 0,-1.5807 0.25401,-2.92143 0.77624,-4.02228 0.52217,-1.12906 1.15726,-2.0041 1.90529,-2.68154 0.80445,-0.70565 1.66535,-1.19963 2.61094,-1.48188 0.94561,-0.31034 1.86297,-0.49396 2.75211,-0.49396 0.94558,0 1.86296,0.18354 2.75209,0.49396 0.88911,0.28218 1.66537,0.77623 2.32869,1.48188 0.70565,0.70567 1.24196,1.66538 1.62303,2.82266 0.42341,1.12905 0.63509,2.54041 0.63509,4.234 l 0,0.91734 -11.43175,0 c 0.0423,1.52425 0.49397,2.61098 1.34074,3.31662 0.84682,0.70567 1.87707,1.0585 3.10495,1.0585 1.08671,0 1.97584,-0.15534 2.6815,-0.49396 0.74803,-0.36693 1.43956,-0.86092 2.04644,-1.48188 l 2.04644,2.0464 c -0.88918,0.98795 -1.93354,1.75008 -3.10494,2.25813 -1.12906,0.50811 -2.4416,0.77626 -3.95171,0.77626 z m 3.74002,-10.3733 c -0.23991,-2.62505 -1.52426,-3.95171 -3.88115,-3.95171 -0.42342,0 -0.87504,0.0705 -1.34075,0.21173 -0.42342,0.14124 -0.8186,0.39518 -1.19968,0.7057 -0.38102,0.33852 -0.67743,0.76208 -0.91733,1.27018 -0.23991,0.47984 -0.42341,1.05848 -0.56453,1.76415 l 7.90344,0 z m 0,0 m -41.5354,-13.40761 3.95171,0 3.03438,12.13743 c 0.18354,0.95969 0.36693,1.87707 0.56453,2.75211 0.22581,0.84676 0.43749,1.75003 0.63509,2.68152 l 0.0705,0 c 0.18354,-0.87503 0.36693,-1.76419 0.56453,-2.61097 0.18355,-0.87502 0.39519,-1.79236 0.6351,-2.75209 l 2.82265,-12.208 3.81059,0 2.89323,12.208 c 0.0845,0.53631 0.18354,1.03028 0.28218,1.48191 0.14124,0.42337 0.25398,0.84678 0.35262,1.27018 0.0845,0.39516 0.18354,0.81856 0.28218,1.2702 0.0845,0.42339 0.18354,0.88915 0.28217,1.34077 l 0.0705,0 c 0.0846,-0.5081 0.18355,-0.98793 0.28218,-1.41134 0.0846,-0.42342 0.18354,-0.80447 0.28218,-1.19963 0.0846,-0.4234 0.18354,-0.80447 0.28218,-1.19961 0.0846,-0.42342 0.18354,-0.87504 0.28217,-1.41136 l 2.96382,-12.34912 3.66943,0 -6.13929,23.42807 -3.45774,0 -4.23397,-17.92388 -0.0705,0 -4.37509,17.92388 -3.52835,0 -6.20984,-23.42807 z m 0,0 m -9.96398,12.13743 7.76231,0 0,2.75211 -7.76231,0 0,-2.75211 z m 0,0 m -19.3634,-5.50418 3.88115,0 0,2.25813 c 0.28217,-0.28218 0.59276,-0.56454 0.98791,-0.84679 0.4234,-0.31036 0.86089,-0.59279 1.34078,-0.84681 0.50806,-0.28218 1.07259,-0.49396 1.69361,-0.63509 0.64918,-0.14124 1.35487,-0.21173 2.11695,-0.21173 1.49603,0 2.68153,0.42341 3.52835,1.27019 0.87499,0.84681 1.34074,2.10288 1.34074,3.74005 l 0,12.06683 -3.95171,0 0,-11.07891 c 0,-1.77828 -0.8327,-2.68153 -2.46982,-2.68153 -0.84681,0 -1.66536,0.21173 -2.39928,0.6351 -0.70566,0.39515 -1.45365,0.90324 -2.18753,1.55247 l 0,11.57287 -3.88115,0 0,-16.79483 z m 0,0 m -8.93372,-6.2804 3.95171,0 0,3.38719 -3.95171,0 0,-3.38719 z m 0,6.2804 3.95171,0 0,16.79482 -3.95171,0 0,-16.79482 z m 0,0 m -11.41766,17.14766 c -1.03024,0 -2.04641,-0.16945 -3.03434,-0.49396 -0.9456,-0.31037 -1.79236,-0.84683 -2.54037,-1.55248 -0.74803,-0.70566 -1.369,-1.58069 -1.83476,-2.68153 -0.46572,-1.12907 -0.70565,-2.46981 -0.70565,-4.02228 0,-1.5807 0.25399,-2.92143 0.77621,-4.02228 0.52223,-1.12906 1.15731,-2.0041 1.90532,-2.68154 0.80443,-0.70565 1.66538,-1.19963 2.61094,-1.48188 0.94559,-0.31034 1.86297,-0.49396 2.75208,-0.49396 0.9456,0 1.86298,0.18354 2.7521,0.49396 0.88915,0.28218 1.66538,0.77623 2.32869,1.48188 0.70569,0.70567 1.24196,1.66538 1.62303,2.82266 0.42341,1.12905 0.63509,2.54041 0.63509,4.234 l 0,0.91734 -11.43174,0 c 0.0423,1.52425 0.49396,2.61098 1.34075,3.31662 0.84681,0.70567 1.87709,1.0585 3.10493,1.0585 1.08671,0 1.97584,-0.15534 2.68153,-0.49396 0.748,-0.36693 1.43953,-0.86092 2.04641,-1.48188 l 2.04644,2.0464 c -0.88912,0.98795 -1.93354,1.75008 -3.10495,2.25813 -1.12906,0.50811 -2.4416,0.77626 -3.95171,0.77626 z m 3.74002,-10.3733 c -0.2399,-2.62505 -1.52421,-3.95171 -3.88114,-3.95171 -0.42341,0 -0.87504,0.0705 -1.34076,0.21173 -0.4234,0.14124 -0.81855,0.39518 -1.19962,0.7057 -0.38106,0.33852 -0.67743,0.76208 -0.91737,1.27018 -0.2399,0.47984 -0.42341,1.05848 -0.56453,1.76415 l 7.90342,0 z m 0,0 m -30.62579,-13.40761 3.88115,0 0,8.89138 c 0.28218,-0.28218 0.60687,-0.56454 0.9879,-0.84679 0.42342,-0.31036 0.87503,-0.59279 1.34079,-0.84681 0.52219,-0.28218 1.0867,-0.49396 1.69359,-0.63509 0.6633,-0.14124 1.36897,-0.21173 2.117,-0.21173 1.5101,0 2.6815,0.42341 3.52832,1.27019 0.88912,0.84681 1.34074,2.10288 1.34074,3.74005 l 0,12.06683 -3.95173,0 0,-11.07891 c 0,-1.77828 -0.81854,-2.68153 -2.46981,-2.68153 -0.84681,0 -1.65124,0.21173 -2.39924,0.6351 -0.70568,0.39515 -1.43956,0.90324 -2.18756,1.55247 l 0,11.57287 -3.88115,0 0,-23.42803 z m 0,0 m -13.52055,6.63325 3.88117,0 0,2.75209 0.0705,0 c 0.5081,-0.84677 1.22784,-1.55246 2.18756,-2.117 0.93148,-0.59275 2.20165,-0.91734 3.81059,-0.91734 l 0.28218,0 -0.14124,3.52832 c -0.11276,0 -0.26808,0 -0.49396,0 -0.254,-0.029 -0.42342,-0.0705 -0.56454,-0.0705 -1.24197,0 -2.25812,0.28218 -3.1049,0.84679 -0.8186,0.53631 -1.48191,1.24196 -2.04644,2.11699 l 0,10.65553 -3.88116,0 0,-16.79481 z m 0,0 m -14.21205,17.07707 c -0.9456,0 -1.83476,-0.16946 -2.68153,-0.49394 -0.80448,-0.36698 -1.51013,-0.91738 -2.11701,-1.62304 -0.56454,-0.73391 -1.01616,-1.63715 -1.34075,-2.68152 -0.32479,-1.07264 -0.49397,-2.34282 -0.49397,-3.8106 0,-1.43957 0.16946,-2.70975 0.49397,-3.81059 0.38107,-1.12906 0.87504,-2.04641 1.48188,-2.75206 0.60687,-0.73392 1.369,-1.28432 2.25813,-1.62304 0.88916,-0.36697 1.87709,-0.56453 2.9638,-0.56453 0.88913,0 1.76417,0.19763 2.61094,0.56453 0.84681,0.33854 1.5807,0.84678 2.18756,1.55243 l 0,-8.46796 3.88116,0 0,19.33521 c 0,0.98792 0.0289,1.82061 0.0705,2.46981 0.099,0.67745 0.2399,1.19963 0.42339,1.62305 l -4.02227,0 c -0.099,-0.22583 -0.18355,-0.56454 -0.28218,-0.98795 -0.0423,-0.4234 -0.0705,-0.84678 -0.0705,-1.27018 -0.60689,0.70565 -1.34076,1.32666 -2.18757,1.83471 -0.84679,0.46576 -1.90529,0.70567 -3.17547,0.70567 z m 1.27019,-3.24605 c 0.80447,0 1.55246,-0.21171 2.25812,-0.63508 0.748,-0.42341 1.369,-0.91737 1.83471,-1.4819 l 0,-6.70382 c -0.52217,-0.64923 -1.15728,-1.15729 -1.90527,-1.55247 -0.70566,-0.36695 -1.38309,-0.56453 -2.04644,-0.56453 -1.51012,0 -2.58272,0.47988 -3.24607,1.41135 -0.60684,0.95968 -0.91733,2.37101 -0.91733,4.23396 0,1.80649 0.35262,3.14729 1.0585,4.02228 0.70564,0.84682 1.69359,1.27021 2.96378,1.27021 z m 0,0 m -20.54894,-13.83102 3.88114,0 0,2.75209 0.0705,0 c 0.52219,-0.84677 1.24197,-1.55246 2.18756,-2.117 0.94561,-0.59275 2.21578,-0.91734 3.8106,-0.91734 l 0.28217,0 -0.14124,3.52832 c -0.099,0 -0.254,0 -0.49397,0 -0.23991,-0.029 -0.42339,-0.0705 -0.56452,-0.0705 -1.22785,0 -2.25813,0.28218 -3.10494,0.84679 -0.80444,0.53631 -1.48188,1.24196 -2.0464,2.11699 l 0,10.65553 -3.88117,0 0,-16.79481 z m 0,0 m -12.193883,17.14766 c -1.044363,0 -2.046441,-0.16945 -3.034332,-0.49396 -0.987948,-0.31037 -1.877104,-0.84683 -2.610972,-1.55248 -0.762127,-0.70566 -1.397225,-1.58069 -1.905283,-2.68153 -0.47989,-1.12907 -0.7057,-2.46981 -0.7057,-4.02228 0,-1.55248 0.22581,-2.85088 0.7057,-3.95171 0.451631,-1.0726 1.072588,-1.97585 1.834727,-2.68155 0.790329,-0.70565 1.69358,-1.2137 2.681528,-1.55244 0.987891,-0.31034 1.989969,-0.49396 3.034332,-0.49396 0.987937,0 1.975851,0.18354 2.963787,0.49396 0.987926,0.33855 1.848845,0.84679 2.610972,1.55244 0.733868,0.7057 1.354871,1.60895 1.834715,2.68155 0.508092,1.10083 0.776222,2.39923 0.776222,3.95171 0,1.55247 -0.268095,2.89321 -0.776222,4.02228 -0.479844,1.10084 -1.100847,1.97587 -1.834715,2.68153 -0.762127,0.70565 -1.623046,1.24196 -2.610972,1.55248 -0.987936,0.32444 -1.97585,0.49396 -2.963787,0.49396 z m 0,-3.24607 c 1.411309,0 2.469813,-0.45162 3.175513,-1.41134 0.705643,-0.98789 1.058448,-2.34279 1.058448,-4.09284 0,-0.73388 -0.112762,-1.43958 -0.282168,-2.11701 -0.141239,-0.70565 -0.409277,-1.2843 -0.776211,-1.76415 -0.338548,-0.45163 -0.776256,-0.80444 -1.340787,-1.0585 -0.536317,-0.28217 -1.12906,-0.42337 -1.834726,-0.42337 -1.46777,0 -2.540404,0.47984 -3.246047,1.41132 -0.705666,0.95971 -1.058505,2.25811 -1.058505,3.95171 0,1.60891 0.310359,2.93555 0.987937,3.95171 0.705655,1.04438 1.792372,1.55247 3.316615,1.55247 z m 0,0 m -31.500837,-20.53484 4.022281,0 11.008371,16.72425 0.07048,0 0,-16.72425 3.669442,0 0,23.42807 -3.598874,0 -11.502341,-17.0065 0,0 0,17.0065 -3.669435,0 0,-23.42807 z m 0,0 m 360.94711,-38.374 3.8812,0 0,13.97216 6.35096,-7.3389 4.30457,0 -5.50418,6.13927 5.92758,10.65554 -4.09283,0 -4.30457,-7.76232 -2.68153,2.89322 0,4.8691 -3.8812,0 0,-23.42807 z m 0,0 m -8.93363,0.35284 3.95171,0 0,3.3872 -3.95171,0 0,-3.3872 z m 0,6.28042 3.95171,0 0,16.79481 -3.95171,0 0,-16.79481 z m 0,0 m -19.74452,0 3.88112,0 0,2.25812 c 0.28218,-0.28218 0.60691,-0.56453 0.98794,-0.84682 0.42345,-0.32445 0.8609,-0.60688 1.34079,-0.84677 0.50806,-0.28218 1.07262,-0.49398 1.69355,-0.6351 0.64926,-0.14126 1.35488,-0.21173 2.11704,-0.21173 1.49597,0 2.68154,0.42337 3.52831,1.2702 0.88913,0.84678 1.34075,2.10287 1.34075,3.74003 l 0,12.06684 -3.95168,0 0,-11.07894 c 0,-1.77825 -0.83269,-2.6815 -2.46985,-2.6815 -0.84681,0 -1.65125,0.21172 -2.39925,0.6351 -0.7057,0.38106 -1.43956,0.90325 -2.1876,1.55243 l 0,11.57291 -3.88112,0 0,-16.79482 z m 0,0 m -19.68807,-6.63326 3.8812,0 0,8.89138 c 0.28217,-0.28218 0.59278,-0.56453 0.98794,-0.84682 0.42341,-0.32445 0.8609,-0.60688 1.34075,-0.84677 0.50809,-0.28218 1.07262,-0.49398 1.69358,-0.6351 0.64923,-0.14126 1.35489,-0.21173 2.11697,-0.21173 1.49603,0 2.68158,0.42337 3.52832,1.2702 0.87506,0.84678 1.34081,2.10287 1.34081,3.74003 l 0,12.06684 -3.95171,0 0,-11.07894 c 0,-1.77825 -0.83273,-2.6815 -2.46985,-2.6815 -0.84679,0 -1.66534,0.21172 -2.39925,0.6351 -0.70565,0.38106 -1.45366,0.90325 -2.18756,1.55243 l 0,11.57291 -3.8812,0 0,-23.42807 z m 0,0 m -10.8954,23.78087 c -0.98794,0 -1.94766,-0.18354 -2.89324,-0.49396 -0.94559,-0.32446 -1.79238,-0.84678 -2.54038,-1.55244 -0.70569,-0.7057 -1.29841,-1.59482 -1.76416,-2.68153 -0.46571,-1.12907 -0.7057,-2.46985 -0.7057,-4.02229 0,-1.59481 0.254,-2.93556 0.77624,-4.02228 0.52222,-1.12906 1.1573,-2.01821 1.90534,-2.68152 0.748,-0.70566 1.59477,-1.19963 2.54038,-1.48191 0.98793,-0.32445 1.94762,-0.49398 2.8932,-0.49398 1.03028,0 1.93355,0.14127 2.68151,0.42342 0.74803,0.23989 1.38313,0.59274 1.90532,1.05849 0.56454,0.42341 1.03028,0.9456 1.41134,1.55247 0.38103,0.56454 0.67744,1.1855 0.91735,1.83473 l -3.24607,1.19961 c -0.66335,-1.87706 -1.90528,-2.82265 -3.74004,-2.82265 -0.56449,0 -1.10081,0.0987 -1.623,0.28218 -0.46575,0.19763 -0.88912,0.49396 -1.27018,0.91737 -0.38105,0.42337 -0.67748,0.9879 -0.91738,1.69359 -0.18354,0.70567 -0.28217,1.55244 -0.28217,2.54038 0,1.79241 0.35299,3.1755 1.05847,4.16344 0.70569,0.94556 1.69363,1.41131 2.9638,1.41131 0.88909,0 1.65122,-0.18354 2.25813,-0.56453 0.66328,-0.36694 1.1996,-1.17141 1.623,-2.39925 l 3.24606,1.19962 c -0.28217,0.66331 -0.63505,1.29841 -1.05849,1.90528 -0.42341,0.62101 -0.91738,1.15732 -1.48191,1.62304 -0.5645,0.4234 -1.24196,0.77624 -2.04641,1.05849 -0.74803,0.22582 -1.62302,0.353 -2.61097,0.353 z m 0,0 m -18.33316,0 c -1.04436,0 -2.04642,-0.18354 -3.03433,-0.49396 -0.95972,-0.32446 -1.8065,-0.84678 -2.54041,-1.55244 -0.76213,-0.7057 -1.38309,-1.59482 -1.83473,-2.68153 -0.47983,-1.12907 -0.70564,-2.46985 -0.70564,-4.02229 0,-1.59481 0.2399,-2.93556 0.77621,-4.02228 0.5081,-1.12906 1.1432,-2.01821 1.90528,-2.68152 0.79034,-0.70566 1.6513,-1.19963 2.61097,-1.48191 0.93148,-0.32445 1.84886,-0.49398 2.7521,-0.49398 0.93146,0 1.84884,0.16945 2.75209,0.49398 0.87504,0.28217 1.65125,0.77625 2.32869,1.48191 0.70566,0.70565 1.22781,1.65124 1.62304,2.82265 0.42339,1.12906 0.63505,2.54037 0.63505,4.23397 l 0,0.91737 -11.43172,0 c 0.0289,1.51012 0.49399,2.61097 1.34075,3.31663 0.84682,0.70565 1.86298,1.0585 3.10495,1.0585 1.07258,0 1.97584,-0.15536 2.68149,-0.49397 0.73392,-0.36694 1.42544,-0.86091 2.04644,-1.4819 l 2.04643,2.04643 c -0.90324,0.98794 -1.94766,1.75003 -3.10492,2.25813 -1.12907,0.50806 -2.45574,0.77621 -3.95174,0.77621 z m 3.74005,-10.37325 c -0.254,-2.62506 -1.53836,-3.95171 -3.88117,-3.95171 -0.42341,0 -0.88915,0.0705 -1.34077,0.21172 -0.42338,0.14126 -0.83265,0.38107 -1.19963,0.70566 -0.39516,0.33853 -0.69153,0.76212 -0.91734,1.27018 -0.254,0.47988 -0.42342,1.0585 -0.56454,1.7642 l 7.90345,0 z m 0,0 m -23.13171,-9.73815 -7.19774,0 0,-3.66947 18.34726,0 0,3.66947 -7.19778,0 0,19.7586 -3.95174,0 0,-19.7586 z m 0,0 m -27.39387,20.04084 c -0.94559,0 -1.8347,-0.18354 -2.68153,-0.49397 -0.80442,-0.36693 -1.51009,-0.91734 -2.11695,-1.62304 -0.56454,-0.74799 -1.01616,-1.63711 -1.3408,-2.68149 -0.33853,-1.07262 -0.49396,-2.34281 -0.49396,-3.81059 0,-1.4537 0.15534,-2.72388 0.49396,-3.8106 0.36698,-1.12906 0.86091,-2.04644 1.48192,-2.75209 0.60687,-0.748 1.35488,-1.28432 2.25811,-1.62303 0.88914,-0.36694 1.87707,-0.56454 2.96379,-0.56454 0.88916,0 1.76415,0.19763 2.61097,0.56454 0.84677,0.33854 1.56655,0.84682 2.18757,1.55247 l 0,-8.46797 3.88114,0 0,19.33518 c 0,0.98794 0.0144,1.82063 0.0705,2.46985 0.0845,0.66331 0.22583,1.19963 0.42337,1.62304 l -4.02227,0 c -0.0987,-0.22581 -0.19764,-0.56453 -0.28218,-0.98794 -0.0563,-0.42342 -0.0705,-0.84683 -0.0705,-1.2702 -0.62101,0.70567 -1.3408,1.32663 -2.18757,1.83473 -0.84681,0.45162 -1.90531,0.70565 -3.1755,0.70565 z m 1.2702,-3.24607 c 0.79034,0 1.55245,-0.21171 2.25812,-0.63508 0.74803,-0.42341 1.35487,-0.91735 1.83476,-1.48188 l 0,-6.70381 c -0.5222,-0.64923 -1.15733,-1.17141 -1.90532,-1.55248 -0.70565,-0.36693 -1.39722,-0.56453 -2.04641,-0.56453 -1.51013,0 -2.59685,0.47985 -3.24605,1.41132 -0.62102,0.9456 -0.91738,2.35694 -0.91738,4.234 0,1.79237 0.35297,3.13316 1.0585,4.02228 0.70564,0.84681 1.69358,1.27018 2.96378,1.27018 z m 0,0 m -26.77287,-13.83098 3.88116,0 0,2.25812 c 0.28216,-0.28218 0.59274,-0.56453 0.98789,-0.84682 0.42341,-0.32445 0.86094,-0.60688 1.34079,-0.84677 0.50806,-0.28218 1.07258,-0.49398 1.69358,-0.6351 0.64923,-0.14126 1.35489,-0.21173 2.11701,-0.21173 1.496,0 2.6815,0.42337 3.52832,1.2702 0.87502,0.84678 1.34075,2.10287 1.34075,3.74003 l 0,12.06684 -3.95173,0 0,-11.07894 c 0,-1.77825 -0.83267,-2.6815 -2.4698,-2.6815 -0.84682,0 -1.66538,0.21172 -2.39925,0.6351 -0.70569,0.38106 -1.4537,0.90325 -2.18756,1.55243 l 0,11.57291 -3.88116,0 0,-16.79482 z m 0,0 m -14.9742,17.07705 c -1.52425,0 -2.72387,-0.4234 -3.59891,-1.27018 -0.84677,-0.84683 -1.27019,-2.08879 -1.27019,-3.74003 l 0,-12.06684 3.95174,0 0,11.14949 c 0,1.79237 0.80446,2.68149 2.46979,2.68149 0.87504,0 1.6936,-0.18353 2.3993,-0.56453 0.70565,-0.42337 1.42543,-0.95967 2.18757,-1.62303 l 0,-11.64342 3.88111,0 0,16.79481 -3.88111,0 0,-2.25813 c -0.28218,0.28217 -0.63513,0.59275 -1.05851,0.91734 -0.39519,0.28218 -0.83269,0.55045 -1.34079,0.77626 -0.47984,0.2399 -1.04438,0.42337 -1.69358,0.56453 -0.62097,0.16945 -1.31254,0.28216 -2.04642,0.28216 z m 0,0 m -31.65608,-17.07705 3.88115,0 0,2.25812 c 0.28217,-0.28218 0.59275,-0.56453 0.9879,-0.84682 0.42341,-0.32445 0.86094,-0.60688 1.34079,-0.84677 0.50806,-0.28218 1.07258,-0.49398 1.69358,-0.6351 0.64923,-0.14126 1.35489,-0.21173 2.11701,-0.21173 1.496,0 2.6815,0.42337 3.52832,1.2702 0.87504,0.84678 1.34074,2.10287 1.34074,3.74003 l 0,12.06684 -3.95172,0 0,-11.07894 c 0,-1.77825 -0.83269,-2.6815 -2.4698,-2.6815 -0.84682,0 -1.66538,0.21172 -2.39925,0.6351 -0.70569,0.38106 -1.4537,0.90325 -2.18757,1.55243 l 0,11.57291 -3.88115,0 0,-16.79482 z m 0,0 m -12.20801,17.14761 c -1.04437,0 -2.04641,-0.18354 -3.03435,-0.49396 -0.98793,-0.32446 -1.86297,-0.84678 -2.61096,-1.55245 -0.76214,-0.70569 -1.39722,-1.59481 -1.90528,-2.68152 -0.47984,-1.12907 -0.70565,-2.46985 -0.70565,-4.02229 0,-1.55246 0.22581,-2.86499 0.70565,-3.95171 0.46572,-1.07263 1.07259,-1.97588 1.83472,-2.68154 0.79035,-0.70565 1.69359,-1.21374 2.68152,-1.55246 0.98794,-0.32445 1.98998,-0.49398 3.03435,-0.49398 0.98793,0 1.97587,0.16945 2.96378,0.49398 0.98794,0.33853 1.84884,0.84681 2.61096,1.55246 0.74801,0.70566 1.35489,1.60891 1.83472,2.68154 0.5081,1.08672 0.77626,2.39925 0.77626,3.95171 0,1.55244 -0.26809,2.89322 -0.77626,4.02229 -0.47983,1.08671 -1.08671,1.97583 -1.83472,2.68152 -0.76212,0.70567 -1.62302,1.22784 -2.61096,1.55245 -0.98791,0.31034 -1.97585,0.49396 -2.96378,0.49396 z m 0,-3.24606 c 1.41135,0 2.46984,-0.46571 3.1755,-1.41131 0.70566,-0.98793 1.0585,-2.34282 1.0585,-4.09285 0,-0.74799 -0.099,-1.45368 -0.28218,-2.11699 -0.14123,-0.70566 -0.40927,-1.28432 -0.77621,-1.76416 -0.33855,-0.46575 -0.77625,-0.81857 -1.34079,-1.05851 -0.52218,-0.28216 -1.12907,-0.4234 -1.83471,-0.4234 -1.46778,0 -2.54038,0.47984 -3.24607,1.41135 -0.70565,0.9456 -1.05846,2.25812 -1.05846,3.95171 0,1.60891 0.32445,2.92144 0.98789,3.95173 0.7057,1.04437 1.80652,1.55243 3.31664,1.55243 z m 0,0 m -16.28672,-20.18197 3.95172,0 0,3.3872 -3.95172,0 0,-3.3872 z m 0,6.28042 3.95172,0 0,16.79481 -3.95172,0 0,-16.79481 z m 0,0 m -6.64734,17.00649 c -1.10084,0 -1.96175,-0.11277 -2.61097,-0.28217 -0.67744,-0.18355 -1.18553,-0.46576 -1.55248,-0.84683 -0.39514,-0.42337 -0.63508,-0.91733 -0.77621,-1.48186 -0.14124,-0.56453 -0.21172,-1.21376 -0.21172,-1.97589 l 0,-9.31474 -2.89322,0 0,-3.10494 2.89322,0 0,-5.85699 3.88116,0 0,5.85699 4.30456,0 0,3.10494 -4.30456,0 0,8.32684 c 0,0.90325 0.15535,1.55245 0.49397,1.97585 0.31034,0.38107 0.98793,0.56453 1.97587,0.56453 0.28218,0 0.56453,-0.0144 0.84678,-0.0705 0.31037,-0.0423 0.59275,-0.0846 0.84681,-0.14128 l 0,3.03435 c -0.14124,0 -0.33852,0.0144 -0.56452,0.0705 -0.19764,0.0289 -0.42342,0.0705 -0.7057,0.0705 -0.254,0.0289 -0.49393,0.0705 -0.77621,0.0705 -0.28217,0 -0.56453,0 -0.84678,0 z m 0,0 m -21.19815,0.0706 c -0.66335,0 -1.29846,-0.11277 -1.90532,-0.28218 -0.56454,-0.18354 -1.05847,-0.46575 -1.48188,-0.84678 -0.42341,-0.36697 -0.748,-0.8186 -0.98793,-1.34079 -0.23991,-0.56453 -0.353,-1.1714 -0.353,-1.83471 0,-0.93147 0.18356,-1.77828 0.56454,-2.54041 0.4234,-0.74799 1.05851,-1.41131 1.90532,-1.97584 0.88911,-0.60688 2.01818,-1.10084 3.38719,-1.48191 1.4113,-0.42337 3.1049,-0.74799 5.08078,-0.9879 l 0,-0.49397 c 0,-0.84682 -0.23991,-1.45369 -0.70567,-1.83475 -0.4234,-0.36694 -1.10084,-0.56453 -2.04643,-0.56453 -1.17142,0 -2.22991,0.2399 -3.1755,0.70569 -0.9456,0.47984 -1.76416,0.9879 -2.46982,1.55243 l -1.90528,-2.39925 c 0.88913,-0.84678 2.01819,-1.55248 3.3872,-2.11701 1.36896,-0.60684 2.92143,-0.91733 4.65737,-0.91733 1.12906,0 2.07466,0.14126 2.82266,0.42341 0.80442,0.2399 1.43955,0.62096 1.90527,1.12906 0.46576,0.52218 0.80447,1.15728 0.98793,1.90528 0.23991,0.76213 0.353,1.62303 0.353,2.61097 l 0,6.9155 c 0,0.98794 0.0289,1.82059 0.0705,2.4698 0.0987,0.66335 0.2399,1.19963 0.42337,1.62304 l -3.95171,0 c -0.0987,-0.36694 -0.18354,-0.70566 -0.28218,-0.98794 -0.0423,-0.28218 -0.0705,-0.64918 -0.0705,-1.12906 -0.88915,0.84681 -1.83472,1.46778 -2.82265,1.83475 -0.98794,0.36693 -2.117,0.56453 -3.38719,0.56453 z m 1.41131,-3.03435 c 1.03028,0 1.93352,-0.15535 2.68153,-0.49397 0.80447,-0.36694 1.51012,-0.84681 2.117,-1.41134 l 0,-3.74 c -2.35693,0.33853 -4.1352,0.80443 -5.36307,1.41131 -1.17141,0.56453 -1.76415,1.29844 -1.76415,2.18756 0,0.70566 0.21171,1.22784 0.63508,1.55247 0.42342,0.33854 0.98794,0.49397 1.69361,0.49397 z m 0,0 m -34.94448,-14.04271 3.88117,0 0,2.32868 c 0.64918,-0.70566 1.43952,-1.31253 2.39924,-1.83472 0.93146,-0.50809 2.06054,-0.77626 3.38718,-0.77626 0.64923,0 1.22786,0.0705 1.76417,0.21173 0.50808,0.0987 0.93146,0.26808 1.27018,0.49397 0.36698,0.2399 0.66334,0.55044 0.91738,0.91737 0.22582,0.33854 0.4375,0.70566 0.6351,1.12906 0.64922,-0.74799 1.48189,-1.38308 2.46981,-1.9053 0.98794,-0.56453 2.117,-0.84678 3.38717,-0.84678 1.6936,0 2.90736,0.47983 3.66949,1.41131 0.79033,0.90325 1.19963,2.1029 1.19963,3.59891 l 0,12.06684 -3.88117,0 0,-11.07891 c 0,-0.93151 -0.18355,-1.62303 -0.49397,-2.04644 -0.33854,-0.4234 -0.9597,-0.63508 -1.83471,-0.63508 -0.81857,0 -1.55248,0.21171 -2.25813,0.63508 -0.67744,0.38107 -1.34074,0.90325 -2.04644,1.55247 l 0,11.57288 -3.88113,0 0,-11.07891 c 0,-0.93151 -0.18353,-1.62303 -0.49396,-2.04644 -0.33854,-0.4234 -0.97382,-0.63508 -1.90532,-0.63508 -0.81856,0 -1.53833,0.21171 -2.18756,0.63508 -0.67744,0.38107 -1.3831,0.90325 -2.11696,1.55247 l 0,11.57288 -3.88117,0 0,-16.79481 z m 0,0 m -13.53465,0 3.88115,0 0,2.75208 0.0705,0 c 0.50809,-0.84681 1.22788,-1.55246 2.18757,-2.117 0.93151,-0.60687 2.20169,-0.91738 3.8106,-0.91738 l 0.28217,0 -0.14124,3.52836 c -0.11276,0 -0.2681,0 -0.49398,0 -0.25399,-0.0423 -0.42337,-0.0705 -0.56452,-0.0705 -1.24197,0 -2.25813,0.28218 -3.10492,0.84678 -0.81855,0.52219 -1.4819,1.22784 -2.04642,2.117 l 0,10.65553 -3.88116,0 0,-16.79481 z m 0,0 m -12.20798,17.14761 c -1.04436,0 -2.04642,-0.18353 -3.03436,-0.49396 -0.98792,-0.32445 -1.86294,-0.84678 -2.61094,-1.55243 -0.76213,-0.7057 -1.39721,-1.59482 -1.90532,-2.68154 -0.47983,-1.12906 -0.70566,-2.46985 -0.70566,-4.02228 0,-1.55247 0.22583,-2.865 0.70566,-3.95172 0.46576,-1.07263 1.07263,-1.97588 1.83476,-2.68153 0.79033,-0.70566 1.69358,-1.21375 2.6815,-1.55247 0.98794,-0.32444 1.99,-0.49398 3.03436,-0.49398 0.98795,0 1.97586,0.16946 2.96379,0.49398 0.98795,0.33854 1.84885,0.84681 2.61097,1.55247 0.74801,0.70565 1.35487,1.6089 1.83472,2.68153 0.50807,1.08672 0.77622,2.39925 0.77622,3.95172 0,1.55243 -0.26808,2.89322 -0.77622,4.02228 -0.47985,1.08672 -1.08671,1.97584 -1.83472,2.68154 -0.76212,0.70565 -1.62302,1.22784 -2.61097,1.55243 -0.98793,0.31036 -1.97585,0.49396 -2.96379,0.49396 z m 0,-3.24606 c 1.41131,0 2.46982,-0.46571 3.17548,-1.4113 0.70569,-0.98794 1.05851,-2.34282 1.05851,-4.09285 0,-0.748 -0.0987,-1.45369 -0.28218,-2.117 -0.14124,-0.70565 -0.40929,-1.28431 -0.77626,-1.76416 -0.33853,-0.46575 -0.77622,-0.81856 -1.34075,-1.0585 -0.52219,-0.28217 -1.12906,-0.42341 -1.83473,-0.42341 -1.46777,0 -2.5404,0.47984 -3.24604,1.41135 -0.70567,0.9456 -1.05851,2.25813 -1.05851,3.95172 0,1.6089 0.32481,2.92143 0.98794,3.95172 0.70565,1.04438 1.8065,1.55243 3.31661,1.55243 z m 0,0 m -18.022636,-10.79665 -2.963822,0 0,-3.1049 2.963822,0 0,-1.6936 c 0,-0.70566 0.07048,-1.35488 0.211715,-1.97588 0.183535,-0.60687 0.465749,-1.12906 0.846812,-1.55243 0.423372,-0.46575 0.987914,-0.8186 1.693603,-1.05851 0.705654,-0.28216 1.594776,-0.4234 2.681482,-0.4234 0.183559,0 0.36698,0.0289 0.564542,0.0705 0.22581,0 0.465738,0 0.705689,0 0.22581,0 0.437501,0.0289 0.635086,0.0705 0.183536,0 0.296275,0 0.352644,0 l 0,3.03434 c -0.09867,-0.0423 -0.282179,-0.0705 -0.564542,-0.0705 -0.282179,-0.0423 -0.5504,-0.0705 -0.77621,-0.0705 -0.338549,0 -0.663323,0.0564 -0.987937,0.14127 -0.282179,0.0564 -0.550401,0.16945 -0.776234,0.35299 -0.239882,0.14126 -0.423394,0.35299 -0.564518,0.63509 -0.09901,0.28218 -0.141239,0.63513 -0.141239,1.0585 l 0,1.48191 3.669442,0 0,3.1049 -3.669442,0 0,13.68991 -3.881157,0 0,-13.68991 z m 0,0 m -21.042912,-3.1049 3.881156,0 0,2.25812 c 0.282179,-0.28218 0.592744,-0.56453 0.987903,-0.84681 0.423406,-0.32446 0.860931,-0.60689 1.340787,-0.84678 0.508057,-0.28218 1.072588,-0.49398 1.693591,-0.6351 0.649227,-0.14126 1.35487,-0.21173 2.116997,-0.21173 1.496006,0 2.681505,0.42338 3.528318,1.2702 0.875026,0.84678 1.340752,2.10287 1.340752,3.74003 l 0,12.06684 -3.951735,0 0,-11.07893 c 0,-1.77826 -0.832672,-2.68151 -2.469813,-2.68151 -0.846802,0 -1.665367,0.21173 -2.399234,0.6351 -0.705689,0.38106 -1.453698,0.90325 -2.187566,1.55243 l 0,11.57291 -3.881156,0 0,-16.79482 z m 0,0 m -9.540597,-6.63325 4.022276,0 0,23.42806 -4.022276,0 0,-23.42806 z m 0,0"
       id="path551"
       style="fill:#000000;fill-opacity:1;fill-rule:nonzero;stroke:none" />
  </g>
</svg>
