<?xml version="1.0" encoding="UTF-8" standalone="no"?>
<!-- Created with Inkscape (http://www.inkscape.org/) -->

<svg
   xmlns:dc="http://purl.org/dc/elements/1.1/"
   xmlns:cc="http://creativecommons.org/ns#"
   xmlns:rdf="http://www.w3.org/1999/02/22-rdf-syntax-ns#"
   xmlns:svg="http://www.w3.org/2000/svg"
   xmlns="http://www.w3.org/2000/svg"
   version="1.1"
   width="892.91339"
   height="251.92912"
   id="svg13684">
  <defs
     id="defs13686">
    <clipPath
       id="clipPath13599">
      <path
         d="m 0,841.89 595.276,0 L 595.276,0 0,0 0,841.89 z"
         id="path13601" />
    </clipPath>
    <clipPath
       id="clipPath13607">
      <path
         d="m 383.658,748.417 169.097,0 0,46.771 -169.097,0 0,-46.771 z"
         id="path13609" />
    </clipPath>
    <clipPath
       id="clipPath13623">
      <path
         d="m 383.658,748.417 169.098,0 0,46.772 -169.098,0 0,-46.772 z"
         id="path13625" />
    </clipPath>
  </defs>
  <metadata
     id="metadata13689">
    <rdf:RDF>
      <cc:Work
         rdf:about="">
        <dc:format>image/svg+xml</dc:format>
        <dc:type
           rdf:resource="http://purl.org/dc/dcmitype/StillImage" />
        <dc:title></dc:title>
      </cc:Work>
    </rdf:RDF>
  </metadata>
  <g
     transform="translate(68.542744,-361.09331)"
     id="layer1">
    <g
       transform="matrix(5.2385721,0,0,-5.2385721,-2074.8196,4530.2022)"
       id="g13593">
      <g
         id="g13595">
        <g
           clip-path="url(#clipPath13599)"
           id="g13597">
          <g
             id="g13603">
            <g
               clip-path="url(#clipPath13607)"
               id="g13605">
              <g
                 transform="translate(455.5164,773.5892)"
                 id="g13611">
                <path
                   d="M 0,0 C -1.787,0 -3.541,-0.706 -5.358,-2.157 -6.019,-0.725 -7.339,0 -9.283,0 c -1.662,0 -3.326,-0.673 -4.949,-2.001 l 0,1.736 -4.514,-0.322 0,-16.141 4.514,0 0,11.511 c 0.56,0.413 1.892,1.285 3.179,1.285 1.076,0 1.743,-0.348 1.743,-2.08 l 0,-10.716 4.513,0 0,11.749 c 0.801,0.485 1.963,1.047 3.057,1.047 1.36,0 1.866,-0.564 1.866,-2.08 l 0,-10.716 4.513,0 0,11.602 C 4.639,-1.677 3.121,0 0,0 m 21.536,-6.409 0,-10.319 -4.127,0 -0.282,1.497 c -0.937,-0.899 -2.309,-1.862 -4.626,-1.862 -3.134,0 -5.006,1.962 -5.006,5.249 0,4.882 4.927,5.471 9.588,5.612 l 0,0.098 c 0,1.967 -0.661,2.599 -2.72,2.599 -1.611,0 -3.575,-0.731 -4.875,-1.215 L 9.364,-4.796 8.481,-1.39 8.579,-1.351 C 9.873,-0.847 12.444,0 15.127,0 c 4.612,0 6.409,-1.797 6.409,-6.409 m -4.453,-2.539 c -2.805,-0.169 -5.105,-0.496 -5.105,-2.53 0,-1.44 0.67,-2.111 2.11,-2.111 1.288,0 2.274,0.597 2.995,1.133 l 0,3.508 z m 8.179,-7.78 4.514,0 0,16.463 -4.514,-0.322 0,-16.141 z m 22.57,11.602 0,-11.602 -4.513,0 0,10.716 c 0,1.516 -0.506,2.08 -1.865,2.08 -1.4,0 -2.871,-0.942 -3.363,-1.287 l 0,-11.509 -4.512,0 0,16.141 4.512,0.322 0,-1.741 C 39.764,-0.674 41.48,0 43.194,0 c 3.121,0 4.638,-1.677 4.638,-5.126 m 26.844,-6.096 -3.275,10.773 -0.026,0.084 -4.652,0 5.516,-16.363 4.66,0 5.516,16.363 -4.407,0 -3.332,-10.857 z m 22.564,4.813 0,-10.319 -4.127,0 -0.283,1.497 c -0.937,-0.899 -2.309,-1.862 -4.626,-1.862 -3.134,0 -5.005,1.962 -5.005,5.249 0,4.882 4.927,5.471 9.588,5.612 l 0,0.098 c 0,1.967 -0.661,2.599 -2.72,2.599 -1.611,0 -3.575,-0.731 -4.874,-1.215 l -0.125,-0.046 -0.884,3.406 0.098,0.039 C 85.576,-0.847 88.148,0 90.829,0 95.442,0 97.24,-1.797 97.24,-6.409 m -4.453,-2.539 c -2.805,-0.169 -5.104,-0.496 -5.104,-2.53 0,-1.44 0.67,-2.111 2.109,-2.111 1.288,0 2.275,0.597 2.995,1.133 l 0,3.508 z M 27.52,6.261 c -1.632,0 -2.686,-0.994 -2.686,-2.532 0,-1.538 1.054,-2.531 2.686,-2.531 1.63,0 2.683,0.993 2.683,2.531 0,1.538 -1.053,2.532 -2.683,2.532 M 66.152,-8.455 c 0,-5.591 -2.72,-8.67 -7.662,-8.67 -4.932,0 -7.539,2.924 -7.539,8.456 0,5.59 2.721,8.669 7.662,8.669 4.932,0 7.539,-2.923 7.539,-8.455 m -4.605,-0.091 c 0,3.529 -0.933,5.102 -3.026,5.102 -2.022,0 -2.965,-1.631 -2.965,-5.134 0,-3.528 0.934,-5.102 3.026,-5.102 2.023,0 2.965,1.632 2.965,5.134"
                   id="path13613"
                   style="fill:#004687;fill-opacity:1;fill-rule:nonzero;stroke:none" />
              </g>
              <g
                 transform="translate(430.1023,793.3932)"
                 id="g13615">
                <path
                   d="m 0,0 c -4.332,4.331 -15.344,0.56 -26.137,-8.42 9.163,6.346 17.943,8.297 21.634,4.607 5.346,-5.346 -0.142,-18.041 -10.832,-29.585 0.769,0.708 1.534,1.442 2.292,2.2 C -0.826,-18.982 5.013,-5.014 0,0 m -25.521,-14.391 c -8.542,-8.541 -12.814,-18.118 -9.542,-21.389 2.934,-2.935 10.94,0.202 18.723,7.043 -0.903,-1.012 -1.854,-2.021 -2.853,-3.02 -10.479,-10.479 -22.115,-15.833 -25.99,-11.957 -3.875,3.874 1.478,15.511 11.957,25.99 7.862,7.862 16.467,12.745 21.842,13.128 -4.161,-1.511 -9.314,-4.972 -14.137,-9.795"
                   id="path13617"
                   style="fill:#004687;fill-opacity:1;fill-rule:nonzero;stroke:none" />
              </g>
            </g>
          </g>
          <g
             id="g13619">
            <g
               clip-path="url(#clipPath13623)"
               id="g13621">
              <g
                 transform="translate(423.515,785.7709)"
                 id="g13627">
                <path
                   d="m 0,0 c -2.521,2.521 -10.123,-0.995 -16.98,-7.852 -6.64,-6.64 -10.147,-13.979 -8.072,-16.725 0.582,2.741 3.037,6.656 6.694,10.314 5.373,5.373 11.305,8.153 13.248,6.21 1.328,-1.327 0.451,-4.514 -1.949,-8.113 C -0.729,-9.531 2.421,-2.421 0,0"
                   id="path13629"
                   style="fill:#e5352c;fill-opacity:1;fill-rule:nonzero;stroke:none" />
              </g>
            </g>
          </g>
        </g>
      </g>
    </g>
  </g>
</svg>
