<svg width="130" height="152" viewBox="0 0 130 152" fill="none" xmlns="http://www.w3.org/2000/svg">
<path d="M4.80005 19.9897L64.7531 147.99L124.7 20.4897" stroke="black" stroke-width="7" stroke-linecap="round" stroke-linejoin="round"/>
<path d="M6.5 17V17C4.079 17.945 4.10468 21.2044 6.557 22.0648C17.9783 26.0721 42.3933 33.6211 64.2394 33.6211C87.6654 33.6211 111.745 26.2445 123.177 22.2042C125.54 21.369 125.436 18.1395 123.1 17.2314V17.2314" stroke="black" stroke-width="6" stroke-linecap="round" stroke-linejoin="round" stroke-dasharray="11 14"/>
<path d="M6.5 20.6211V20.6211C4.0434 19.6622 4.0434 16.3172 6.5 15.3583V15.3583C18.5006 10.6741 35.5 4 65.2394 4C87.321 4 111.66 11.4493 123.204 15.4762C125.715 16.3522 125.721 19.6889 123.23 20.6211V20.6211" stroke="black" stroke-width="7" stroke-linecap="round" stroke-linejoin="round"/>
<path d="M79.3293 84.9994L58.0803 131.028" stroke="black" stroke-width="5" stroke-linecap="round" stroke-linejoin="round"/>
<path d="M89.1434 65.0001L84.2472 75.4691" stroke="black" stroke-width="5" stroke-linecap="round" stroke-linejoin="round"/>
<path d="M94.838 53L94.0217 54.7454" stroke="black" stroke-width="5" stroke-linecap="round" stroke-linejoin="round"/>
</svg>
