<?xml version="1.0" encoding="UTF-8"?>
<svg width="100pt" height="100pt" version="1.1" viewBox="0 0 100 100" xmlns="http://www.w3.org/2000/svg">
 <g>
  <path d="m5.7656 88.461c-0.3125 0-0.62891-0.074219-0.92188-0.23828-0.92969-0.50781-1.2734-1.6797-0.76172-2.6094l44.23-80.77c0.33594-0.60938 0.97266-0.99219 1.6641-1 0.69922-0.023438 1.3398 0.35938 1.6875 0.96484 7.3867 12.844 14.891 26.871 22.145 40.434 7.2422 13.539 14.73 27.539 22.086 40.332 0.53125 0.92188 0.21094 2.0977-0.71094 2.625-0.91797 0.52734-2.0938 0.21094-2.625-0.71094-7.3867-12.844-14.891-26.871-22.145-40.434-6.6836-12.496-13.574-25.383-20.383-37.352l-42.574 77.762c-0.35156 0.63672-1.0117 0.99609-1.6914 0.99609z"/>
  <path d="m50 96.156c-4.7227 0-46.152-0.26953-46.152-9.6172 0-1.0625 0.85938-1.9219 1.9219-1.9219s1.9219 0.85937 1.9219 1.9219c1.0117 1.832 14.906 5.7695 42.309 5.7695 27.398 0 41.297-3.9375 42.34-5.9453 0-1.0625 0.84375-1.8359 1.9062-1.8359s1.9062 0.94922 1.9062 2.0117c0 9.3438-41.43 9.6172-46.152 9.6172z"/>
  <path d="m5.7539 88.551c-1.0625 0-1.9062-0.94922-1.9062-2.0117 0-3.1992 4.3008-4.832 7.5391-5.7812 1.0234-0.29687 2.0859 0.28906 2.3867 1.3047 0.29687 1.0195-0.28516 2.0859-1.3047 2.3867-4.2383 1.2422-4.8047 2.2539-4.8086 2.2656 0 1.0625-0.84375 1.8359-1.9062 1.8359zm82.543-3.957c-0.18359 0-0.37109-0.027344-0.55469-0.082031-1.9609-0.58984-4.4102-1.1328-7.2734-1.6133-1.0469-0.17578-1.7539-1.168-1.5781-2.2148s1.1445-1.7422 2.2148-1.5781c3.0195 0.50781 5.625 1.0898 7.7422 1.7266 1.0195 0.30469 1.5938 1.3789 1.2852 2.3945-0.24609 0.82813-1.0117 1.3672-1.8359 1.3672zm-68.859-1.7109c-0.92578 0-1.7383-0.66797-1.8945-1.6094-0.17578-1.0469 0.53516-2.0391 1.582-2.2109 2.3438-0.39062 4.9492-0.73438 7.7383-1.0273 1.0625-0.11719 2.0039 0.65625 2.1133 1.7109 0.11328 1.0586-0.65234 2.0039-1.7109 2.1133-2.7148 0.28906-5.2422 0.625-7.5156 1-0.10156 0.015625-0.20703 0.023437-0.3125 0.023437zm53.727-0.98828c-0.066406 0-0.13672-0.003906-0.20312-0.011719-2.4141-0.25391-4.9688-0.47266-7.5859-0.63672-1.0586-0.066406-1.8633-0.98047-1.7969-2.043 0.066406-1.0586 0.93359-1.8242 2.043-1.7969 2.6719 0.17188 5.2773 0.39062 7.7461 0.65234 1.0547 0.10938 1.8203 1.0586 1.7109 2.1133-0.10547 0.99219-0.94141 1.7227-1.9141 1.7227zm-38.43-0.66016c-1.0078 0-1.8555-0.78125-1.918-1.8008-0.066406-1.0625 0.73828-1.9727 1.7969-2.043 2.4844-0.15625 5.0938-0.27734 7.7539-0.35547 0.99609 0.027344 1.9492 0.80469 1.9805 1.8672s-0.80469 1.9492-1.8672 1.9805c-2.6172 0.078126-5.1797 0.19531-7.6211 0.34766-0.042969 0-0.082031 0.003906-0.125 0.003906zm23.078-0.34766h-0.058594c-2.4766-0.074219-5.0273-0.11328-7.6367-0.11719-1.0625 0-1.9219-0.86328-1.9219-1.9258s0.86328-1.9219 1.9219-1.9219c2.6484 0 5.2383 0.042969 7.75 0.11719 1.0625 0.03125 1.8984 0.92188 1.8633 1.9805-0.027344 1.043-0.88281 1.8672-1.918 1.8672z"/>
 </g>
</svg>
